<svg id="Camada_1" data-name="Camada 1" xmlns="http://www.w3.org/2000/svg" viewBox="0 0 55.66 49.06"><defs><style>.cls-1{fill:#fff;}</style></defs><title>brand</title><path class="cls-1" d="M29.2.36c.87.24,1.75.45,2.6.72,1.58.51,3.15,1,4.69,1.61a36.3,36.3,0,0,1,3.44,1.52A28.14,28.14,0,0,1,45.35,7.7,26.71,26.71,0,0,1,47.5,9.51c1.06,1.08,2,2.24,3,3.38a27,27,0,0,1,2.68,3.85c.23.38.41.79.61,1.18-.68.2-1.29.4-1.92.57a.42.42,0,0,1-.34-.15,24.66,24.66,0,0,0-3.43-4.86,24,24,0,0,0-2-2.14c-1.18-1-2.4-2-3.65-3a30.63,30.63,0,0,0-5.14-3.07,28.35,28.35,0,0,0-4.77-1.89c-.32-.09-.63-.2-1-.33.56.73,1.07,1.37,1.54,2,.64.9,1.28,1.8,1.86,2.73S36.2,10,36.76,11.08A20,20,0,0,1,38.68,17,20.23,20.23,0,0,1,39,20.59a26.75,26.75,0,0,1-.44,3.2c-.05.28-.22.37-.51.38-.51,0-1,.12-1.52.19l-.4,0c.18-.76.39-1.49.52-2.24A12.07,12.07,0,0,0,36.76,19a19.62,19.62,0,0,0-.83-4.1c-.31-.92-.73-1.81-1.13-2.71-.32-.71-.68-1.4-1-2.09a9,9,0,0,0-.85-1.32c0,.58-.08,1.16-.08,1.74a20.21,20.21,0,0,1-.9,5.57,15.13,15.13,0,0,1-2.11,4.4,14.16,14.16,0,0,1-3.24,3.27,18.78,18.78,0,0,1-4.88,2.5c-1,.35-2,.57-3.07.84-.67.17-1.35.35-2,.48a12.25,12.25,0,0,1-1.69.23c-1.42.1-2.83.16-4.24.23a2.17,2.17,0,0,1-.35-.07v-.87c0-.43.11-.87.15-1.3,0-.62,0-1.24.16-1.85.23-1.37.48-2.73.79-4.07a22.84,22.84,0,0,1,1.94-5.31A15.45,15.45,0,0,1,17,9.74a14.22,14.22,0,0,1,3.67-2.27,14.38,14.38,0,0,1,3.73-1.09c1.12-.15,2.24-.32,3.36-.42A20.37,20.37,0,0,1,30,6c.35,0,.7.06,1.14.1l-.6-.71c-.9-1.07-1.79-2.14-2.7-3.2-.28-.32-.29-.43-.05-.77s.47-.67.7-1Z" transform="translate(-10.32 -0.36)"/><path class="cls-1" d="M37.32,49.42c-.28-.05-.57-.11-.85-.14a10.27,10.27,0,0,1-2.87-.78,12.1,12.1,0,0,1-6.22-5.8,11.84,11.84,0,0,1-1.06-3.1,12.76,12.76,0,0,1-.19-3.38,12.43,12.43,0,0,1,1.57-5.13,11.4,11.4,0,0,1,2.6-3.15A11.64,11.64,0,0,1,33,26.18a10.36,10.36,0,0,1,3.51-1.07A16.85,16.85,0,0,1,39.11,25a13.47,13.47,0,0,1,2.75.51,11.78,11.78,0,0,1,5.57,3.59,11.48,11.48,0,0,1,1.83,2.82,11.79,11.79,0,0,1,.92,2.7,12.27,12.27,0,0,1,.22,3.63,12.46,12.46,0,0,1-.67,3.15,12.35,12.35,0,0,1-6.28,6.88,10.56,10.56,0,0,1-3.38,1c-.29,0-.57.09-.86.14Zm4.47-18.94a1.15,1.15,0,0,0-1.19,1c-.05.46.6,1,1.21,1S43,32,43,31.45A1.11,1.11,0,0,0,41.79,30.48Z" transform="translate(-10.32 -0.36)"/><path class="cls-1" d="M65.92,30.7c-.1.48-.17,1-.29,1.44a10.81,10.81,0,0,1-7.69,7.79,13.18,13.18,0,0,1-2.35.34,10.32,10.32,0,0,1-4.12-.56c-.25-.09-.32-.18-.26-.43a12.34,12.34,0,0,0,.2-3.93A12.11,12.11,0,0,0,45.2,26c-.16-.09-.33-.17-.2-.46a10.93,10.93,0,0,1,3.12-4.18A10.34,10.34,0,0,1,53,19.11,13.07,13.07,0,0,1,56.14,19a10.8,10.8,0,0,1,8.8,6.15,10,10,0,0,1,.91,3.26A8.5,8.5,0,0,1,66,29.53C66,29.93,65.92,30.41,65.92,30.7Zm-6.46-6.76A1.05,1.05,0,0,0,58.29,23a1.09,1.09,0,0,0-1.16,1,1.17,1.17,0,0,0,1.16.93A1.08,1.08,0,0,0,59.46,23.94Z" transform="translate(-10.32 -0.36)"/></svg>