<svg id="Camada_1" data-name="Camada 1" xmlns="http://www.w3.org/2000/svg" viewBox="0 0 66.9 72.42"><defs><style>.cls-1{fill:#fff;}</style></defs><title>logo</title><path class="cls-1" d="M29.2.36c.87.24,1.75.45,2.6.72,1.58.51,3.15,1,4.69,1.61a36.3,36.3,0,0,1,3.44,1.52A28.14,28.14,0,0,1,45.35,7.7,26.71,26.71,0,0,1,47.5,9.51c1.06,1.08,2,2.24,3,3.38a27,27,0,0,1,2.68,3.85c.23.38.41.79.61,1.18-.68.2-1.29.4-1.92.57a.42.42,0,0,1-.34-.15,24.66,24.66,0,0,0-3.43-4.86,24,24,0,0,0-2-2.14c-1.18-1-2.4-2-3.65-3a30.63,30.63,0,0,0-5.14-3.07,28.35,28.35,0,0,0-4.77-1.89c-.32-.09-.63-.2-1-.33.56.73,1.07,1.37,1.54,2,.64.9,1.28,1.8,1.86,2.73S36.2,10,36.76,11.08A20,20,0,0,1,38.68,17,20.23,20.23,0,0,1,39,20.59a26.75,26.75,0,0,1-.44,3.2c-.05.28-.22.37-.51.38-.51,0-1,.12-1.52.19l-.4,0c.18-.76.39-1.49.52-2.24A12.07,12.07,0,0,0,36.76,19a19.62,19.62,0,0,0-.83-4.1c-.31-.92-.73-1.81-1.13-2.71-.32-.71-.68-1.4-1-2.09a9,9,0,0,0-.85-1.32c0,.58-.08,1.16-.08,1.74a20.21,20.21,0,0,1-.9,5.57,15.13,15.13,0,0,1-2.11,4.4,14.16,14.16,0,0,1-3.24,3.27,18.78,18.78,0,0,1-4.88,2.5c-1,.35-2,.57-3.07.84-.67.17-1.35.35-2,.48a12.25,12.25,0,0,1-1.69.23c-1.42.1-2.83.16-4.24.23a2.17,2.17,0,0,1-.35-.07v-.87c0-.43.11-.87.15-1.3,0-.62,0-1.24.16-1.85.23-1.37.48-2.73.79-4.07a22.84,22.84,0,0,1,1.94-5.31A15.45,15.45,0,0,1,17,9.74a14.22,14.22,0,0,1,3.67-2.27,14.38,14.38,0,0,1,3.73-1.09c1.12-.15,2.24-.32,3.36-.42A20.37,20.37,0,0,1,30,6c.35,0,.7.06,1.14.1l-.6-.71c-.9-1.07-1.79-2.14-2.7-3.2-.28-.32-.29-.43-.05-.77s.47-.67.7-1Z" transform="translate(-4.82 -0.36)"/><path class="cls-1" d="M37.32,49.42c-.28-.05-.57-.11-.85-.14a10.27,10.27,0,0,1-2.87-.78,12.1,12.1,0,0,1-6.22-5.8,11.84,11.84,0,0,1-1.06-3.1,12.76,12.76,0,0,1-.19-3.38,12.43,12.43,0,0,1,1.57-5.13,11.4,11.4,0,0,1,2.6-3.15A11.64,11.64,0,0,1,33,26.18a10.36,10.36,0,0,1,3.51-1.07A16.85,16.85,0,0,1,39.11,25a13.47,13.47,0,0,1,2.75.51,11.78,11.78,0,0,1,5.57,3.59,11.48,11.48,0,0,1,1.83,2.82,11.79,11.79,0,0,1,.92,2.7,12.27,12.27,0,0,1,.22,3.63,12.46,12.46,0,0,1-.67,3.15,12.35,12.35,0,0,1-6.28,6.88,10.56,10.56,0,0,1-3.38,1c-.29,0-.57.09-.86.14Zm4.47-18.94a1.15,1.15,0,0,0-1.19,1c-.05.46.6,1,1.21,1S43,32,43,31.45A1.11,1.11,0,0,0,41.79,30.48Z" transform="translate(-4.82 -0.36)"/><path class="cls-1" d="M65.92,30.7c-.1.48-.17,1-.29,1.44a10.81,10.81,0,0,1-7.69,7.79,13.18,13.18,0,0,1-2.35.34,10.32,10.32,0,0,1-4.12-.56c-.25-.09-.32-.18-.26-.43a12.34,12.34,0,0,0,.2-3.93A12.11,12.11,0,0,0,45.2,26c-.16-.09-.33-.17-.2-.46a10.93,10.93,0,0,1,3.12-4.18A10.34,10.34,0,0,1,53,19.11,13.07,13.07,0,0,1,56.14,19a10.8,10.8,0,0,1,8.8,6.15,10,10,0,0,1,.91,3.26A8.5,8.5,0,0,1,66,29.53C66,29.93,65.92,30.41,65.92,30.7Zm-6.46-6.76A1.05,1.05,0,0,0,58.29,23a1.09,1.09,0,0,0-1.16,1,1.17,1.17,0,0,0,1.16.93A1.08,1.08,0,0,0,59.46,23.94Z" transform="translate(-4.82 -0.36)"/><path class="cls-1" d="M16.52,51.24A1.24,1.24,0,0,1,17,53c-.57,1.22-1,2.48-1.53,3.73a3.32,3.32,0,0,1-.42.77c.51-.46,1-.92,1.53-1.36a2,2,0,0,1,2-.54,1.3,1.3,0,0,1,.92,1.57,13.55,13.55,0,0,1-.87,1.9A16.82,16.82,0,0,0,17,62.74c0,.09,0,.3.1.31a.47.47,0,0,0,.37-.07c.43-.41.86-.83,1.26-1.27a6.56,6.56,0,0,0,.77-1c.31-.51.58-1,.84-1.58a9.46,9.46,0,0,1,2.1-2.91,4.45,4.45,0,0,1,2-1A1.43,1.43,0,0,1,26,56.26a2.77,2.77,0,0,1-.4,2A6.37,6.37,0,0,1,24,60.48a1.74,1.74,0,0,1-1.48.6c-.23,0-.46-.12-.79-.21-.11.48-.27,1-.34,1.56a.7.7,0,0,0,1,.78,7.11,7.11,0,0,0,1.88-1.07,28.19,28.19,0,0,0,2.26-2.37c.38-.43.73-.9,1.09-1.35.05-.08.08-.17.13-.26-1.3-.07-1.65-1.16-1.06-2.17a2.41,2.41,0,0,1,2.39-1.22A.93.93,0,0,1,30,55.94l-.09.39c.69-.23,1.36-.47,2.05-.66a1,1,0,0,1,1,.13,1.06,1.06,0,0,1,.38,1.13,8.89,8.89,0,0,1-1.4,2.63c-.64,1.06-1.14,2.21-1.69,3.33,0,.07,0,.25.05.27s.28.08.35,0a11.52,11.52,0,0,0,1.54-1.32C33,61,33.66,60,34.38,59.08a8.38,8.38,0,0,0,.54-.93c-.53,0-1.05-.1-1.22-.66a1.78,1.78,0,0,1-.05-1.09,2.42,2.42,0,0,1,2.67-1.62c.62.06.88.61.69,1.34,0,.06,0,.13,0,.2l2-.63a1.08,1.08,0,0,1,1.22.23,1.17,1.17,0,0,1,.16,1.29,10.48,10.48,0,0,1-1.13,2,17.09,17.09,0,0,0-1.66,3,4,4,0,0,0-.23.53.54.54,0,0,0,.06.39s.23,0,.32,0a3.81,3.81,0,0,0,.91-.61,41.42,41.42,0,0,0,2.65-3.26,6.57,6.57,0,0,0,1.16-3c0-.4.31-.52.63-.57A.86.86,0,0,1,44,56a1.45,1.45,0,0,1,.11,1.37c-.38.9-.77,1.79-1.12,2.7s-.59,1.59-.87,2.39c0,.09,0,.22,0,.33s.25,0,.32-.11A11.57,11.57,0,0,0,45.44,59c.41-.89.81-1.78,1.21-2.68a1.49,1.49,0,0,1,1-1,.83.83,0,0,1,.72.16,1.27,1.27,0,0,1,.28.93,11.71,11.71,0,0,1-.68,1.75c-.6,1.5-1.24,3-1.8,4.5-.33.89-.54,1.83-.8,2.73,1.2-.11,2.42-.25,3.64-.32a3.16,3.16,0,0,1,1.23.26.58.58,0,0,1,.37.75,1.16,1.16,0,0,1-.9.63c-.78,0-1.57,0-2.35.1-.62,0-1.24.13-1.86.17a1.27,1.27,0,0,0-1.15.72,10.65,10.65,0,0,1-3.7,4.12,5,5,0,0,1-2.31.81c-.05,0-.11,0-.17.08h-.92A.87.87,0,0,0,37,72.7a2.42,2.42,0,0,1-2.19-3.15,3.77,3.77,0,0,1,2.6-2.5,21.87,21.87,0,0,1,5.17-1.16A1.07,1.07,0,0,0,43.6,65c.11-.47.24-.95.37-1.48a.93.93,0,0,0-.18.13,3.19,3.19,0,0,1-2.3,1.29.84.84,0,0,1-.91-.43c-.16-.4-.3-.82-.45-1.23-.15.14-.36.31-.55.5a5.71,5.71,0,0,1-2.31,1.45,1.43,1.43,0,0,1-1.9-1.38,7.79,7.79,0,0,1,1.26-3.7,29.09,29.09,0,0,1,1.55-2.47c-.41.14-.84.29-1.26.46a.88.88,0,0,0-.38.24,5.47,5.47,0,0,0-.42.61,21.54,21.54,0,0,1-3.84,5,7.57,7.57,0,0,1-1.9,1.21,1.41,1.41,0,0,1-2-.65,1.87,1.87,0,0,1-.06-1.6,36,36,0,0,1,1.49-3.29c.33-.66.78-1.26,1.23-2-.69.39-1.49.34-1.9,1.1-.33.6-.78,1.13-1.17,1.7a14.13,14.13,0,0,1-3.18,3.32,4.7,4.7,0,0,1-2.67,1.16c-1.21,0-2.14-.09-2.58-1.53a.41.41,0,0,0,0-.09c-.27.23-.56.43-.79.67a2.77,2.77,0,0,1-2.37.82c-.37,0-1-.4-1-.76a4.84,4.84,0,0,1-.07-1.69,11.45,11.45,0,0,1,1.52-3.71,8.24,8.24,0,0,0,.54-1.07l-.1-.07a1.19,1.19,0,0,0-.25.13A10.68,10.68,0,0,0,14.83,60a15.9,15.9,0,0,0-1.76,3.7c-.15.39-.24.88-.68,1a1.48,1.48,0,0,1-1.06-.07,1,1,0,0,1-.43-1.16c0-.17.09-.35.15-.59-.44.31-.84.56-1.19.86a4.58,4.58,0,0,1-3.58.94,1.56,1.56,0,0,1-.54-.21,2,2,0,0,1-.92-1.38V61.42s.07-.06.07-.09A4.79,4.79,0,0,1,5.61,59a21.11,21.11,0,0,1,1.77-2.62A4.17,4.17,0,0,1,9.64,54.8c.9-.23,1.34,0,1.65.83a2.64,2.64,0,0,1,.08,1.28A5.05,5.05,0,0,1,9.7,60a1,1,0,0,1-.79.16c-.18-.07-.33-.4-.37-.63a1.34,1.34,0,0,1,.32-1.07A16.55,16.55,0,0,0,9.78,57l-.16-.13a10.6,10.6,0,0,0-1.08.91,7.58,7.58,0,0,0-1.65,2.73,2.88,2.88,0,0,0-.13,2.08.59.59,0,0,0,.42.34,2.07,2.07,0,0,0,1-.15,10.08,10.08,0,0,0,1.63-1,7.46,7.46,0,0,0,3-3.54c.67-2.1,1.52-4.14,2.3-6.19.13-.33.26-.67.65-.78Zm25.8,16.41a3.09,3.09,0,0,0-.53,0c-.89.2-1.8.37-2.68.62A4,4,0,0,0,37,69.42c-.31.35-.28,1,.06,1.16a2.18,2.18,0,0,0,1.66.09A6.79,6.79,0,0,0,42.32,67.65Zm-19.89-8.1a3.44,3.44,0,0,0,1.88-2.49C23.56,57.2,22.2,59,22.43,59.55Zm12.9-2.77c0-.25.41-.44.11-.83C35.34,56.28,34.92,56.46,35.33,56.78Zm-6.86-.68-.12,0c-.37.33-.42.55-.12.76Z" transform="translate(-4.82 -0.36)"/><path class="cls-1" d="M50.6,72.78c-.32-.09-.65-.15-1-.26a2.45,2.45,0,0,1-1.39-3.18,3.79,3.79,0,0,1,2.42-2.22c1-.33,2-.63,3-.88a18.49,18.49,0,0,1,2.56-.43.75.75,0,0,0,.72-.64c.2-.55.35-1.11.55-1.75-.36.25-.68.45-1,.68a2.7,2.7,0,0,1-2.57.49,1.18,1.18,0,0,1-.59-.58,2.38,2.38,0,0,1-.21-1.38A8.13,8.13,0,0,1,53.81,60a8.26,8.26,0,0,1,1.69-2.69,5.36,5.36,0,0,1,1.77-1.24,1.51,1.51,0,0,1,2.16.9c0,.08,0,.17.1.33a3.58,3.58,0,0,1,.38-.87,1.14,1.14,0,0,1,.64-.34.6.6,0,0,1,.59.22c.58.57.21,1.15,0,1.67-.51,1.66-1.12,3.28-1.67,4.93-.27.82-.49,1.65-.73,2.47l3.37-.29c.29,0,.59,0,.88,0,.84-.07,1.67-.17,2.51-.24.55,0,.8-.48,1.1-.82a16.45,16.45,0,0,0,1-1.34c.09-.13.13-.24.34-.12s.25-.17.4-.24.24-.06.25,0c.09.22.27.48.22.67a5.35,5.35,0,0,1-2.46,3.27,3.32,3.32,0,0,1-1.33.35c-.74.1-1.49.14-2.24.18-.45,0-.9,0-1.35,0-1.06.07-2.12.15-3.19.26a.55.55,0,0,0-.32.27,15.88,15.88,0,0,1-2.19,3.09,7.77,7.77,0,0,1-3.62,2.23c-.19,0-.39.08-.58.12Zm5-5.22c-1.31.32-2.64.58-3.93,1a4.59,4.59,0,0,0-1.51,1,.71.71,0,0,0,.26,1.27,2.65,2.65,0,0,0,1.37,0A6.23,6.23,0,0,0,55.65,67.56Zm2.23-9.68a3.71,3.71,0,0,0-.62.38,7.62,7.62,0,0,0-2.18,4,.9.9,0,0,0,.23.61c0,.06.36,0,.48-.12.47-.4.91-.83,1.36-1.25a6.23,6.23,0,0,0,1.48-2.67A.79.79,0,0,0,57.88,57.88Z" transform="translate(-4.82 -0.36)"/><path class="cls-1" d="M71.72,58.47c-.39.72-.74,1.45-1.17,2.14a3.77,3.77,0,0,1-2.1,1.46c-.55.18-1.15.23-1.72.37a.6.6,0,0,0-.39.26,4.86,4.86,0,0,1-2.68,2.2,2,2,0,0,1-2.22-.7,2.35,2.35,0,0,1-.23-.91,7.29,7.29,0,0,1,.61-3.35,10.41,10.41,0,0,1,1.71-2.74,9.71,9.71,0,0,1,2.1-1.84A2.29,2.29,0,0,1,68,55.19a1.92,1.92,0,0,1,.73,1.55,6.46,6.46,0,0,1-1,3.67l-.22.35A2.46,2.46,0,0,0,69,60c.5-.57,1-1.18,1.43-1.77a1,1,0,0,0,.13-.25c.19,0,.4.06.54,0,.35-.18.42-.17.52.22a.2.2,0,0,0,.08.08Zm-4.54-1.31c-.13-.18-.21-.4-.36-.48s-.33,0-.46.14a3.07,3.07,0,0,0-1.42,2.38,1.3,1.3,0,0,0,.41,1.28c.21.16.34.2.48-.06.23-.45.51-.89.7-1.35S67,57.83,67.18,57.16Zm-3.53,3.07A5.51,5.51,0,0,0,63,62.92c0,.45.24.61.59.34.52-.4,1-.87,1.51-1.35A2.09,2.09,0,0,1,63.65,60.23Z" transform="translate(-4.82 -0.36)"/><path class="cls-1" d="M50.56,59.65h1.3a.78.78,0,0,1,.84.71.75.75,0,0,1-.76.8q-1.42,0-2.85,0a.77.77,0,0,1-.68-.84.65.65,0,0,1,.72-.67Z" transform="translate(-4.82 -0.36)"/></svg>